 <svg  version="1.0" xmlns="http://www.w3.org/2000/svg"  width="300.000000pt" height="300.000000pt" viewBox="0 0 300.000000 300.000000"  preserveAspectRatio="xMidYMid meet">  <g transform="translate(0.000000,300.000000) scale(0.100000,-0.100000)" fill="#2936f5" stroke="none"> <path d="M1218 2316 c-56 -15 -113 -51 -161 -102 -35 -37 -36 -38 -55 -21 -11 10 -28 18 -38 17 -11 0 -47 0 -81 0 -74 1 -116 -18 -138 -60 -19 -36 -19 -65 0 -165 15 -77 34 -119 63 -141 8 -5 18 -30 22 -54 6 -34 4 -49 -11 -74 -25 -41 -24 -96 2 -130 11 -14 26 -26 33 -26 8 0 16 -12 19 -27 4 -16 22 -104 41 -198 32 -157 37 -172 66 -197 17 -16 42 -28 56 -28 46 0 93 36 94 73 0 20 20 24 20 3 0 -19 48 -106 73 -135 96 -105 199 -109 273 -10 27 37 58 127 69 202 15 99 53 99 74 0 32 -146 75 -229 132 -259 35 -18 90 -18 132 -1 38 16 98 81 125 134 24 46 102 276 102 299 0 13 6 15 30 11 69 -14 119 33 135 130 8 51 -15 138 -45 171 -21 22 -21 27 -10 112 27 210 -44 377 -193 450 -110 54 -191 50 -381 -20 l-60 -22 -122 41 c-131 44 -184 49 -266 27z m255 -55 c101 -41 146 -40 272 4 55 19 118 35 141 35 135 0 270 -102 308 -234 19 -63 21 -205 5 -292 -6 -32 -23 -102 -39 -154 -95 -320 -114 -381 -136 -434 -66 -162 -176 -228 -259 -155 -43 38 -60 77 -84 184 -21 93 -33 120 -62 136 -34 18 -65 -21 -84 -102 -48 -213 -115 -283 -222 -232 -85 40 -178 224 -238 469 -20 82 -44 183 -55 224 -27 113 -34 170 -21 170 20 0 61 48 61 71 0 12 -7 30 -15 39 -12 13 -13 22 -3 48 10 27 9 34 -7 52 -23 26 -13 49 54 114 103 101 228 120 384 57z m-492 -81 c11 -6 19 -21 19 -35 0 -19 -7 -26 -27 -31 -16 -3 -50 -12 -77 -20 -66 -19 -66 -19 -66 19 0 45 8 53 60 65 61 13 68 14 91 2z m-170 -29 c-8 -15 -9 -38 -1 -83 28 -173 54 -218 120 -205 27 6 27 6 50 -96 12 -56 47 -202 76 -324 30 -123 54 -230 54 -238 0 -23 -46 -65 -70 -65 -38 0 -65 40 -83 125 -27 128 -57 288 -55 290 2 1 14 8 26 14 34 18 55 73 41 108 -16 42 -39 63 -70 63 -29 0 -30 1 -44 72 -2 12 5 18 24 21 25 4 25 4 -7 12 -63 15 -95 81 -109 227 -5 51 -3 59 21 83 30 30 44 28 27 -4z m199 -76 c21 -25 2 -54 -43 -65 -23 -6 -57 -15 -76 -20 -19 -5 -36 -8 -37 -7 -1 1 -5 18 -9 37 l-6 36 58 15 c76 21 98 22 113 4z m15 -120 c0 -34 -24 -50 -90 -60 -37 -6 -41 -4 -58 23 -20 35 -17 37 38 47 22 4 47 11 55 16 30 18 55 6 55 -26z m-104 -255 c14 -8 19 -21 19 -50 0 -43 -18 -60 -65 -60 -20 0 -29 8 -41 36 -14 32 -13 38 1 60 17 26 52 31 86 14z m1326 -27 c33 -80 11 -190 -43 -215 -20 -9 -28 -9 -40 3 -13 13 -12 21 4 70 10 29 25 82 32 117 7 34 17 62 22 62 5 0 16 -17 25 -37z"/> <path d="M1464 2206 c27 -22 73 -29 165 -25 51 3 85 9 93 18 11 11 8 12 -17 7 -69 -16 -127 -18 -172 -7 -27 7 -57 14 -68 17 -20 5 -20 5 -1 -10z"/> <path d="M1309 1979 c-99 -58 -88 -193 19 -227 37 -12 46 -12 79 5 107 53 105 183 -4 229 -42 18 -51 17 -94 -7z m56 -63 c0 -36 -27 -56 -52 -40 -40 25 -20 77 26 72 21 -2 26 -8 26 -32z m73 -8 c22 -42 -2 -100 -48 -117 -33 -11 -55 -7 -82 17 -26 22 -22 33 12 30 34 -3 75 30 84 68 8 30 19 31 34 2z"/> <path d="M1778 1978 c-93 -54 -87 -177 10 -220 38 -17 51 -19 83 -9 94 28 118 165 40 220 -44 31 -90 35 -133 9z m57 -62 c0 -56 -65 -61 -73 -6 -4 27 14 41 48 38 20 -3 25 -8 25 -32z m81 -55 c-7 -47 -37 -75 -80 -75 -32 0 -76 26 -76 44 0 4 14 7 31 8 31 1 79 35 79 57 0 6 6 17 12 23 20 20 41 -16 34 -57z"/> <path d="M1507 1803 c-14 -14 -6 -36 24 -64 44 -41 99 -40 141 1 29 30 34 60 11 67 -7 3 -17 -7 -23 -21 -20 -53 -95 -53 -119 0 -11 24 -22 30 -34 17z"/> <path d="M1169 1729 c-14 -14 -18 -27 -13 -42 11 -37 25 -47 65 -47 41 0 79 27 79 55 0 50 -91 74 -131 34z m88 -26 c8 -20 -20 -45 -39 -38 -22 9 -31 35 -18 50 13 16 50 8 57 -12z"/> <path d="M1922 1734 c-58 -40 16 -127 80 -93 30 16 38 28 38 61 0 46 -71 65 -118 32z m72 -10 c37 -14 5 -71 -33 -59 -28 8 -36 37 -15 52 20 15 26 15 48 7z"/> <path d="M2315 1947 c0 -70 3 -118 7 -105 8 29 8 164 -1 203 -3 17 -6 -28 -6 -98z"/> <path d="M2372 1603 c-4 -116 -70 -225 -148 -245 -24 -7 -44 -17 -44 -23 0 -15 -45 -152 -65 -200 -42 -97 -111 -179 -180 -211 -61 -29 -125 -30 -183 -4 -23 11 -40 15 -36 9 12 -20 73 -39 126 -39 144 1 252 120 325 358 26 88 28 91 61 97 21 4 50 23 77 50 52 52 78 126 72 207 l-3 53 -2 -52z"/> <path d="M925 1081 c11 -13 34 -30 52 -37 37 -16 111 -18 133 -4 9 5 19 5 27 -2 11 -8 12 -7 7 6 -5 12 -13 16 -28 11 -76 -22 -137 -13 -186 29 l-25 21 20 -24z"/> <path d="M1581 1053 c-58 -130 -183 -186 -299 -133 -23 11 -40 15 -36 9 12 -21 74 -39 129 -39 65 0 115 22 161 72 34 36 80 118 66 118 -5 0 -14 -12 -21 -27z"/> </g> </svg> 